<?xml version="1.0" encoding="UTF-8"?>
<svg width="27px" height="28px" viewBox="0 0 27 28" version="1.1" xmlns="http://www.w3.org/2000/svg" xmlns:xlink="http://www.w3.org/1999/xlink">
    <!-- Generator: Sketch 46.2 (44496) - http://www.bohemiancoding.com/sketch -->
    <title>clock</title>
    <desc>Created with Sketch.</desc>
    <defs></defs>
    <g id="Welcome" stroke="none" stroke-width="1" fill="none" fill-rule="evenodd">
        <g id="Desktop" transform="translate(-931.000000, -2598.000000)" fill-rule="nonzero" fill="#BFBFBF">
            <g id="clock" transform="translate(931.000000, 2598.000000)">
                <path d="M26.1766903,1.63947667 L20.7810546,1.63947667 L20.7810546,0.825378421 C20.7810546,0.36963197 20.4122876,0 19.9576077,0 C19.5029278,0 19.1341608,0.36963197 19.1341608,0.825378421 L19.1341608,1.63947667 L14.3234469,1.63947667 L14.3234469,0.825378421 C14.3234469,0.36963197 13.9546799,0 13.5,0 C13.0453201,0 12.6765531,0.36963197 12.6765531,0.825378421 L12.6765531,1.63947667 L8.07032845,1.63947667 L8.07032845,0.825378421 C8.07032845,0.36963197 7.70156149,0 7.24688157,0 C6.79220164,0 6.42343468,0.36963197 6.42343468,0.825378421 L6.42343468,1.63947667 L0.823446887,1.63947667 C0.368766964,1.63947667 0,2.00910864 0,2.46485509 L0,21.1145556 C0,21.5703021 0.368766964,21.9399341 0.823446887,21.9399341 L5.87748939,21.9399341 C6.68734941,25.4084493 9.79641037,28 13.5,28 C17.2035896,28 20.3126506,25.4083118 21.1225106,21.9399341 L26.1765531,21.9399341 C26.631233,21.9399341 27,21.5703021 27,21.1145556 L27,2.46485509 C27.0001372,2.00910864 26.6315075,1.63947667 26.1766903,1.63947667 Z M6.42343468,3.29023351 L6.42343468,4.03610048 C6.42343468,4.49184693 6.79220164,4.8614789 7.24688157,4.8614789 C7.70156149,4.8614789 8.07032845,4.49184693 8.07032845,4.03610048 L8.07032845,3.29023351 L12.6765531,3.29023351 L12.6765531,4.03610048 C12.6765531,4.49184693 13.0453201,4.8614789 13.5,4.8614789 C13.9546799,4.8614789 14.3234469,4.49184693 14.3234469,4.03610048 L14.3234469,3.29023351 L19.1341608,3.29023351 L19.1341608,4.03610048 C19.1341608,4.49184693 19.5029278,4.8614789 19.9576077,4.8614789 C20.4122876,4.8614789 20.7810546,4.49184693 20.7810546,4.03610048 L20.7810546,3.29023351 L25.3532434,3.29023351 L25.3532434,6.665481 L1.64689377,6.665481 L1.64689377,3.29023351 L6.42343468,3.29023351 L6.42343468,3.29023351 Z M13.5,26.3492432 C10.0906554,26.3492432 7.31687455,23.5689559 7.31687455,20.1516142 C7.31687455,16.7342724 10.0906554,13.9539852 13.5,13.9539852 C16.9093446,13.9539852 19.6831254,16.7341348 19.6831254,20.1516142 C19.6831254,23.5690935 16.9094818,26.3492432 13.5,26.3492432 Z M21.3265882,20.2891772 C21.3274116,20.2432312 21.3300192,20.1976978 21.3300192,20.1516142 C21.3300192,15.8240175 17.8174692,12.3032283 13.5,12.3032283 C9.18253071,12.3032283 5.66998078,15.8240175 5.66998078,20.1516142 C5.66998078,20.1976978 5.6727256,20.2432312 5.67341181,20.2891772 L1.64675653,20.2891772 L1.64675653,8.31637541 L25.3531062,8.31637541 L25.3531062,20.2891772 L21.3265882,20.2891772 L21.3265882,20.2891772 Z" id="Shape"></path>
                <path d="M14.8611685,20.278694 L14.8611685,16.7329459 C14.8611685,16.3282376 14.4444218,16 13.9305842,16 C13.4167466,16 13,16.3282376 13,16.7329459 L13,20.5823779 C13,20.7767307 13.0980215,20.9631433 13.2725061,21.1006928 L15.4112988,22.785369 C15.593073,22.9284156 15.8311474,23 16.069377,23 C16.3074515,23 16.545681,22.9284156 16.7274551,22.785369 C17.0908483,22.4991536 17.0908483,22.0350767 16.7274551,21.7488613 L14.8611685,20.278694 Z" id="Shape"></path>
            </g>
        </g>
    </g>
</svg>