<?xml version="1.0" encoding="UTF-8"?>
<svg width="50px" height="43px" viewBox="0 0 50 43" version="1.1" xmlns="http://www.w3.org/2000/svg" xmlns:xlink="http://www.w3.org/1999/xlink">
    <!-- Generator: Sketch 46.2 (44496) - http://www.bohemiancoding.com/sketch -->
    <title>Page 1</title>
    <desc>Created with Sketch.</desc>
    <defs>
        <polygon id="path-1" points="49.9809783 0.0211638524 2.7100271e-06 0.0211638524 2.7100271e-06 42.9999919 49.9809783 42.9999919 49.9809783 0.0211638524"></polygon>
        <polygon id="path-3" points="0 43 50 43 50 0 0 0"></polygon>
    </defs>
    <g id="Welcome" stroke="none" stroke-width="1" fill="none" fill-rule="evenodd">
        <g id="Desktop" transform="translate(-656.000000, -2531.000000)">
            <g id="Group-16" transform="translate(656.000000, 2478.000000)">
                <g id="Page-1" transform="translate(0.000000, 53.000000)">
                    <g id="Group-3">
                        <mask id="mask-2" fill="white">
                            <use xlink:href="#path-1"></use>
                        </mask>
                        <g id="Clip-2"></g>
                        <path d="M2.4990542,2.5009838 L2.4990542,40.5216967 L25.778187,40.5216967 C39.8327669,40.5216967 47.4796504,34.0230495 47.4796504,21.462451 C47.4796504,8.55384559 39.1902466,2.50023083 25.778187,2.50023083 L2.4990542,2.50023083 L2.4990542,2.5009838 Z M2.7100271e-06,0.0211557849 L25.778187,0.0211557849 C43.2746098,0.0211557849 49.9809783,9.50226585 49.9809783,21.462451 C49.9809783,35.8038787 40.6158564,42.9999919 25.778187,42.9999919 L2.7100271e-06,42.9999919 L2.7100271e-06,0.0211557849 Z" id="Fill-1" fill="#BFBFBF" mask="url(#mask-2)"></path>
                    </g>
                    <mask id="mask-4" fill="white">
                        <use xlink:href="#path-3"></use>
                    </mask>
                    <g id="Clip-5"></g>
                    <polygon id="Fill-4" fill="#BFBFBF" mask="url(#mask-4)" points="6 37 13 37 13 24 6 24"></polygon>
                    <path d="M9.5,13 C11.9852719,13 14,15.0147281 14,17.5 C14,19.9852719 11.9852719,22 9.5,22 C7.01472808,22 5,19.9852719 5,17.5 C5,15.0147281 7.01472808,13 9.5,13" id="Fill-6" fill="#BFBFBF" mask="url(#mask-4)"></path>
                    <path d="M17,15.9406262 L17,20.2533843 L18.3491794,20.2533843 C19.2841024,20.2533843 20.1483149,19.9880691 20.1483149,18.0623096 C20.1483149,16.1815219 19.1869547,15.9406262 18.3491794,15.9406262 L17,15.9406262 Z M39.5170239,13.7937662 L41.7024348,13.7937662 L41.7024348,20.2533843 L44.9370083,20.2533843 C44.0495013,8.53262313 34.6519174,6 26.1076844,6 L17.0015713,6 L17.0015713,13.7983364 L18.3491794,13.7983364 C20.8065985,13.7983364 22.3321821,15.4328739 22.3321821,18.0630668 C22.3321821,20.7771459 20.8431254,22.3971886 18.3491794,22.3971886 L17.0015713,22.3971886 L17.0015713,38 L26.1084563,38 C39.9934173,38 44.828999,31.6737831 45,22.3956742 L39.5170239,22.3956742 L39.5170239,13.7937662 Z M33.4332976,18.5921558 L35.0140712,18.5921558 L34.2889642,16.1616997 L34.1568609,16.1616997 L33.4333251,18.5921558 L33.4332976,18.5921558 Z M30.0262068,22.3971886 L32.6693479,13.793009 L35.7764771,13.793009 L38.4188739,22.3971886 L36.1456606,22.3971886 L35.6498321,20.7329312 L32.7929329,20.7329312 L32.296305,22.3971886 L30.0262068,22.3971886 Z M29.0811389,20.2526271 L29.0811389,22.3956472 L23.6797901,22.3956472 L23.6797901,13.7960648 L28.9086217,13.7960648 L28.9086217,15.9383546 L25.8636572,15.9383546 L25.8636572,16.9340101 L28.7431067,16.9340101 L28.7431067,19.0770301 L25.8636572,19.0770301 L25.8636572,20.2533843 L29.0811389,20.2526271 Z" id="Fill-7" fill="#BFBFBF" mask="url(#mask-4)"></path>
                </g>
            </g>
        </g>
    </g>
</svg>