<?xml version="1.0" encoding="UTF-8"?>
<svg width="39px" height="46px" viewBox="0 0 39 46" version="1.1" xmlns="http://www.w3.org/2000/svg" xmlns:xlink="http://www.w3.org/1999/xlink">
    <!-- Generator: Sketch 46.2 (44496) - http://www.bohemiancoding.com/sketch -->
    <title>Page 1</title>
    <desc>Created with Sketch.</desc>
    <defs>
        <polygon id="path-1" points="0 40.9932567 0 0.00199354402 34.9899654 0.00199354402 34.9899654 40.9932567"></polygon>
        <polygon id="path-3" points="2.70291333e-15 40.9921961 2.70291333e-15 0.00198799097 34.9900289 0.00198799097 34.9900289 40.9921961"></polygon>
        <polygon id="path-5" points="29.9980512 0.0175541689 29.9980512 34 0.0124576676 34 0.0124576676 0.0175541689 29.9980512 0.0175541689"></polygon>
    </defs>
    <g id="Welcome" stroke="none" stroke-width="1" fill="none" fill-rule="evenodd">
        <g id="Desktop" transform="translate(-656.000000, -2604.000000)">
            <g id="Group-16" transform="translate(656.000000, 2478.000000)">
                <g id="Page-1" transform="translate(0.000000, 126.000000)">
                    <g id="Group-3">
                        <mask id="mask-2" fill="white">
                            <use xlink:href="#path-1"></use>
                        </mask>
                        <g id="Clip-2"></g>
                        <path d="M32.8657113,3.47858993 C30.756623,1.04522605 26.9441283,0.00199354402 22.066785,0.00199354402 L7.91138793,0.00199354402 C6.91449138,0.00203056433 6.06558595,0.735754718 5.90932941,1.73239716 L0.0152855277,39.571436 C-0.101856583,40.3175805 0.468932341,40.9932567 1.21605617,40.9932567 L9.95508438,40.9932567 L12.149844,26.9019362 L12.0817275,27.3431999 C12.2380755,26.3471312 13.0796664,25.6124816 14.0762338,25.6124816 L18.2290003,25.6124816 C26.3871089,25.6124816 32.7750478,22.2582929 34.6410379,12.5553421 C34.6964271,12.2683791 34.7444104,11.9890608 34.785902,11.7161841 C34.5503743,11.5899263 34.5503743,11.5899263 34.785902,11.7161841 C35.3415499,8.12987797 34.7821168,5.6887028 32.8657113,3.47858993" id="Fill-1" fill="#27346A" mask="url(#mask-2)"></path>
                    </g>
                    <g id="Group-6">
                        <mask id="mask-4" fill="white">
                            <use xlink:href="#path-3"></use>
                        </mask>
                        <g id="Clip-5"></g>
                        <path d="M15.4937338,10.4242805 C15.7326445,10.3091288 15.9939559,10.2494521 16.2585588,10.2496002 L27.3561371,10.2496002 C28.6702463,10.2496002 29.8959961,10.3361722 31.0160692,10.5186638 C31.3294966,10.5692521 31.6412965,10.6296322 31.95103,10.6997487 C32.3900295,10.7978155 32.8239637,10.9178354 33.2512234,11.0593641 C33.801879,11.2455022 34.3147004,11.4623117 34.7860483,11.7161785 C35.3415499,8.12850266 34.7821168,5.68871576 32.8657113,3.47858438 C30.7554344,1.0452205 26.9441283,0.00198799097 22.066785,0.00198799097 L7.91019932,0.00198799097 C6.91346735,0.00198799097 6.06554937,0.736508081 5.90932941,1.7323916 L0.0152855277,39.5700422 C-0.101856583,40.3174268 0.468932341,40.9921961 1.21483098,40.9921961 L9.95508438,40.9921961 L14.5085222,11.7633794 C14.5994052,11.1801799 14.9677646,10.6794986 15.4937338,10.4242805" id="Fill-4" fill="#BFBFBF" mask="url(#mask-4)"></path>
                    </g>
                    <g id="Group-9" transform="translate(9.000000, 12.000000)">
                        <mask id="mask-6" fill="white">
                            <use xlink:href="#path-5"></use>
                        </mask>
                        <g id="Clip-8"></g>
                        <path d="M25.9407227,0.84670425 C24.0286115,10.4325827 17.4829525,13.7481222 9.12303373,13.7481222 L4.86638788,13.7481222 C3.84516989,13.7481222 2.98264647,14.4740103 2.82397064,15.4581997 L0.0260630856,32.7701254 C-0.0784778264,33.415339 0.432758901,34.0000146 1.1015659,34.0000146 L8.65043535,34.0000146 C9.54376452,33.9997769 10.3042767,33.3655004 10.443877,32.504289 L10.517406,32.1288441 L11.9401668,23.327764 L12.0318345,22.8413573 C12.1714347,21.9802008 12.931872,21.3459608 13.8251449,21.3456499 L14.9549138,21.3456499 C22.2675684,21.3456499 27.9935209,18.4459748 29.6667751,10.0596983 C30.3651886,6.55508295 30.003802,3.62905282 28.1562067,1.57381775 C27.5958195,0.951301345 26.8998795,0.437186229 26.0891487,0.0175541689 C26.0452636,0.288529962 25.9976496,0.563163636 25.9407227,0.84670425" id="Fill-7" fill="#A0A0A0" mask="url(#mask-6)"></path>
                    </g>
                    <path d="M33.0203085,10.6748836 C32.7255841,10.589357 32.4280441,10.5136239 32.1282256,10.4478498 C31.8142914,10.3792408 31.4984492,10.3195968 31.181088,10.2689546 C30.045186,10.0862488 28.804417,10.0000043 27.4719334,10.0000043 L16.2312297,10.0000043 C15.9629583,9.99941523 15.6980399,10.0592801 15.4564437,10.1750889 C14.9229761,10.4281525 14.5494672,10.9264561 14.4582342,11.5068438 L12.0689851,26.5611563 L12,27 C12.1571431,26.0094125 13.0096762,25.2787734 14.0193895,25.2787734 L18.2274636,25.2787734 C26.4918223,25.2787734 32.9628085,21.94298 34.853101,12.2932611 C34.9093783,12.0078535 34.9565972,11.7313004 35,11.4587052 C34.5212907,11.2075745 34.0031798,10.9905918 33.4452042,10.8066895 C33.3043997,10.7602997 33.1627987,10.7163583 33.0204752,10.6748836" id="Fill-10" fill="#585A60"></path>
                </g>
            </g>
        </g>
    </g>
</svg>