<?xml version="1.0" encoding="UTF-8"?>
<svg width="26px" height="18px" viewBox="0 0 26 18" version="1.1" xmlns="http://www.w3.org/2000/svg" xmlns:xlink="http://www.w3.org/1999/xlink">
    <!-- Generator: Sketch 46.2 (44496) - http://www.bohemiancoding.com/sketch -->
    <title>return</title>
    <desc>Created with Sketch.</desc>
    <defs></defs>
    <g id="Welcome" stroke="none" stroke-width="1" fill="none" fill-rule="evenodd">
        <g id="Desktop" transform="translate(-931.000000, -2564.000000)" fill-rule="nonzero" fill="#BFBFBF">
            <g id="return" transform="translate(931.000000, 2564.000000)">
                <path d="M19.5423102,5.21456536 C19.506865,5.21456536 1.83323853,5.21456536 1.83323853,5.21456536 L5.55681901,1.08295531 C5.7982835,0.815011696 5.77461947,0.404047527 5.50395581,0.165009652 C5.2333937,-0.073977952 4.81815603,-0.0506522792 4.57669154,0.217341603 L0.383080494,4.87041115 C-0.127727351,5.43736575 -0.12767657,6.29217123 0.383131276,6.85897502 L4.57674232,11.5120948 C4.706539,11.6561208 4.88635515,11.7294157 5.06698379,11.7294157 C5.22257731,11.7294157 5.37872943,11.6749724 5.50400659,11.5644268 C5.77467025,11.3253889 5.7982835,10.9144247 5.55686979,10.6464811 L1.83328931,6.5148208 C1.83328931,6.5148208 19.506865,6.5148208 19.542361,6.5148208 C22.3788959,6.5148208 24.6864941,8.79932915 24.6864941,11.6072575 C24.6864941,14.4151859 22.3788451,16.6996943 19.542361,16.6996943 L16.4152562,16.6996943 C16.0525263,16.6996943 15.7585033,16.9908128 15.7585033,17.3498471 C15.7585033,17.7088815 16.0525263,18 16.4152562,18 L19.542361,18 C23.1031371,18 26,15.1322493 26,11.6072575 C25.9999492,8.08231607 23.1030863,5.21456536 19.5423102,5.21456536 Z" id="Shape"></path>
            </g>
        </g>
    </g>
</svg>