<?xml version="1.0" encoding="UTF-8"?>
<svg width="26px" height="18px" viewBox="0 0 26 18" version="1.1" xmlns="http://www.w3.org/2000/svg" xmlns:xlink="http://www.w3.org/1999/xlink">
    <!-- Generator: Sketch 46.2 (44496) - http://www.bohemiancoding.com/sketch -->
    <title>delivery-truck</title>
    <desc>Created with Sketch.</desc>
    <defs></defs>
    <g id="Welcome" stroke="none" stroke-width="1" fill="none" fill-rule="evenodd">
        <g id="Desktop" transform="translate(-931.000000, -2531.000000)" fill-rule="nonzero" fill="#BFBFBF">
            <g id="delivery-truck" transform="translate(931.000000, 2531.000000)">
                <path d="M21.2563633,13.1612903 C20.6210548,13.1612903 20.0175117,13.4139785 19.5622073,13.8709677 C19.1069029,14.3333333 18.8527795,14.9354839 18.8527795,15.5806452 C18.8527795,16.2258065 19.1016086,16.827957 19.5622073,17.2903226 C20.0228059,17.7473118 20.6210548,18 21.2563633,18 C22.5587457,18 23.6175932,16.9139785 23.6175932,15.5806452 C23.6175932,14.2473118 22.5587457,13.1612903 21.2563633,13.1612903 Z M21.2563633,16.9247312 C20.5257585,16.9247312 19.911627,16.311828 19.911627,15.5806452 C19.911627,14.8494624 20.5257585,14.2365591 21.2563633,14.2365591 C21.9763796,14.2365591 22.5587457,14.8387097 22.5587457,15.5806452 C22.5587457,16.3225806 21.9763796,16.9247312 21.2563633,16.9247312 Z M21.8704948,5.10215054 C21.7751985,5.01075269 21.6481368,4.96236559 21.5157809,4.96236559 L18.7998371,4.96236559 C18.508654,4.96236559 18.2704134,5.20430108 18.2704134,5.5 L18.2704134,9.90860215 C18.2704134,10.2043011 18.508654,10.4462366 18.7998371,10.4462366 L23.1093464,10.4462366 C23.4005294,10.4462366 23.6387701,10.2043011 23.6387701,9.90860215 L23.6387701,6.95698925 C23.6387701,6.80645161 23.5752393,6.66129032 23.4640603,6.55913978 L21.8704948,5.10215054 Z M22.5799226,9.37096774 L19.3292608,9.37096774 L19.3292608,6.03225806 L21.3093056,6.03225806 L22.5799226,7.19354839 L22.5799226,9.37096774 Z M8.32783547,13.1612903 C7.69252698,13.1612903 7.08898391,13.4139785 6.6336795,13.8709677 C6.17837508,14.3333333 5.92425168,14.9354839 5.92425168,15.5806452 C5.92425168,16.2258065 6.17308084,16.827957 6.6336795,17.2903226 C7.09427815,17.7473118 7.69252698,18 8.32783547,18 C9.63021788,18 10.6890654,16.9139785 10.6890654,15.5806452 C10.6890654,14.2473118 9.63021788,13.1612903 8.32783547,13.1612903 Z M8.32783547,16.9247312 C7.59723071,16.9247312 6.98309917,16.311828 6.98309917,15.5806452 C6.98309917,14.8494624 7.59723071,14.2365591 8.32783547,14.2365591 C9.04785176,14.2365591 9.63021788,14.8387097 9.63021788,15.5806452 C9.63021788,16.3225806 9.04785176,16.9247312 8.32783547,16.9247312 Z M4.79657911,13.8225806 L3.73243739,13.8225806 L3.73243739,12.3924731 C3.73243739,12.0967742 3.4941967,11.8548387 3.20301364,11.8548387 C2.91183058,11.8548387 2.6735899,12.0967742 2.6735899,12.3924731 L2.6735899,14.3602151 C2.6735899,14.655914 2.91183058,14.8978495 3.20301364,14.8978495 L4.79657911,14.8978495 C5.08776217,14.8978495 5.32600285,14.655914 5.32600285,14.3602151 C5.32600285,14.0645161 5.08776217,13.8225806 4.79657911,13.8225806 Z M7.48075748,10.8924731 C7.48075748,10.5967742 7.2425168,10.3548387 6.95133374,10.3548387 L0.529423743,10.3548387 C0.238240684,10.3548387 0,10.5967742 0,10.8924731 C0,11.188172 0.238240684,11.4301075 0.529423743,11.4301075 L6.95133374,11.4301075 C7.2425168,11.4301075 7.48075748,11.1935484 7.48075748,10.8924731 Z M1.60415394,8.9516129 L8.02606394,8.98924731 C8.317247,8.98924731 8.55548768,8.75268817 8.56078192,8.45698925 C8.56607616,8.15591398 8.32783547,7.91397849 8.03665241,7.91397849 L1.61474241,7.87634409 C1.60944818,7.87634409 1.60944818,7.87634409 1.60944818,7.87634409 C1.31826512,7.87634409 1.08002443,8.11290323 1.08002443,8.40860215 C1.0747302,8.70967742 1.31297088,8.9516129 1.60415394,8.9516129 Z M2.68417838,6.51075269 L9.10608837,6.51075269 C9.39727143,6.51075269 9.63551212,6.2688172 9.63551212,5.97311828 C9.63551212,5.67741935 9.39727143,5.43548387 9.10608837,5.43548387 L2.68417838,5.43548387 C2.39299532,5.43548387 2.15475463,5.67741935 2.15475463,5.97311828 C2.15475463,6.2688172 2.39299532,6.51075269 2.68417838,6.51075269 Z M25.8041132,5.78494624 L25.8041132,5.78494624 L22.0134392,2.59677419 C21.9181429,2.51612903 21.8016697,2.47311828 21.674608,2.47311828 L17.2168601,2.47311828 L17.2168601,0.537634409 C17.2168601,0.241935484 16.9786194,0 16.6874364,0 L3.20301364,0 C2.91183058,0 2.6735899,0.241935484 2.6735899,0.537634409 L2.6735899,4.47311828 C2.6735899,4.7688172 2.91183058,5.01075269 3.20301364,5.01075269 C3.4941967,5.01075269 3.73243739,4.7688172 3.73243739,4.47311828 L3.73243739,1.07526882 L16.1633069,1.07526882 L16.1633069,13.8225806 L11.8220322,13.8225806 C11.5308491,13.8225806 11.2926084,14.0645161 11.2926084,14.3602151 C11.2926084,14.655914 11.5308491,14.8978495 11.8220322,14.8978495 L18.2862961,14.8978495 C18.5774791,14.8978495 18.8157198,14.655914 18.8157198,14.3602151 C18.8157198,14.0645161 18.5774791,13.8225806 18.2862961,13.8225806 L17.2221543,13.8225806 L17.2221543,3.5483871 L21.4893097,3.5483871 L24.9411525,6.4516129 L24.9040929,13.811828 L24.3534922,13.811828 C24.0623091,13.811828 23.8240684,14.0537634 23.8240684,14.3494624 C23.8240684,14.6451613 24.0623091,14.8870968 24.3534922,14.8870968 L25.4282224,14.8870968 C25.7194054,14.8870968 25.9576461,14.6505376 25.9576461,14.3548387 L26,6.20430108 C25.9947058,6.04301075 25.9258807,5.88709677 25.8041132,5.78494624 Z" id="Shape"></path>
            </g>
        </g>
    </g>
</svg>